# xmcd
#
# Track frame offsets:
# 150
# 13114
# 25129
# 37931
# 52241
# 65085
# 78723
# 91765
# 105153
# 118232
# 129810
# 144561
# 157019
# 170720
# 184200
# 197766
# 211343
# 224243
#
# Disc length: 3171 seconds
#
#
# Revision: 0
# Processed by: cddbd v1.5.1PL2 Copyright (c) Steve Scherf et al.
# Submitted via: FreeRIP 2.944 
#
DISCID=0b0c6112
DTITLE=diverse - The Best of Blues
DYEAR=2005
DGENRE=Blues
TTITLE0=Ray Charles - Baby Won't You Please Come Home
TTITLE1=Billie Holiday - Billie's Blues (I Love My Man)
TTITLE2=Willie Mae 'Big Mama' Thornton - Hound Dog
TTITLE3=Lowell Fulson - Reconsider Baby
TTITLE4=Floyd Jones - Big World
TTITLE5=Albert King - Bad Luck Blues Murder
TTITLE6=Big Bill Broonzy - Keep Your Hands Off Her
TTITLE7=Tony Hollins - Crawlin'King Snake
TTITLE8=Sonny Terry - Harmonica and Wasboard Blues
TTITLE9=Johnny Young - Money Takin'Woman
TTITLE10=Sunnyland Slim - Train Time
TTITLE11=Snoooky Pryor - Telephone Blues
TTITLE12=Dinah Washinton and Lionel Hampton - Salty Papa Blues
TTITLE13=Amos Milburn - Down The Road A'Piece
TTITLE14=Rabon Tarrant and Jack Mcvea All Stars - Blues With A Feeling
TTITLE15=Roosevelt Sykes - 44 Blues
TTITLE16=Muddy Waters - I Just Want To Make Love To You
TTITLE17=B.B. King - Three O'Clock In The Morning
EXTD=
EXTT0=
EXTT1=
EXTT2=
EXTT3=
EXTT4=
EXTT5=
EXTT6=
EXTT7=
EXTT8=
EXTT9=
EXTT10=
EXTT11=
EXTT12=
EXTT13=
EXTT14=
EXTT15=
EXTT16=
EXTT17=
PLAYORDER=
